{
    "asset" : {
        "generator" : "Khronos glTF Blender I/O v3.2.43",
        "version" : "2.0"
    },
    "scene" : 0,
    "scenes" : [
        {
            "name" : "Scene",
            "nodes" : [
                0,
                1
            ]
        }
    ],
    "nodes" : [
        {
            "name" : "Empty",
            "translation" : [
                0.09999998658895493,
                0,
                0.059999994933605194
            ]
        },
        {
            "mesh" : 0,
            "name" : "Cylinder",
            "scale" : [
                2.0399997234344482,
                0.10000000149011612,
                2.0399999618530273
            ]
        }
    ],
    "materials" : [
        {
            "doubleSided" : true,
            "name" : "Material.001",
            "pbrMetallicRoughness" : {
                "baseColorFactor" : [
                    0.800000011920929,
                    0.800000011920929,
                    0.800000011920929,
                    1
                ],
                "metallicFactor" : 0,
                "roughnessFactor" : 0.5
            }
        }
    ],
    "meshes" : [
        {
            "name" : "Cylinder.004",
            "primitives" : [
                {
                    "attributes" : {
                        "POSITION" : 0,
                        "NORMAL" : 1,
                        "TEXCOORD_0" : 2
                    },
                    "indices" : 3,
                    "material" : 0
                }
            ]
        }
    ],
    "accessors" : [
        {
            "bufferView" : 0,
            "componentType" : 5126,
            "count" : 1678,
            "max" : [
                1,
                1.000037670135498,
                1
            ],
            "min" : [
                -1,
                -1.0000009536743164,
                -1
            ],
            "type" : "VEC3"
        },
        {
            "bufferView" : 1,
            "componentType" : 5126,
            "count" : 1678,
            "type" : "VEC3"
        },
        {
            "bufferView" : 2,
            "componentType" : 5126,
            "count" : 1678,
            "type" : "VEC2"
        },
        {
            "bufferView" : 3,
            "componentType" : 5123,
            "count" : 2766,
            "type" : "SCALAR"
        }
    ],
    "bufferViews" : [
        {
            "buffer" : 0,
            "byteLength" : 20136,
            "byteOffset" : 0
        },
        {
            "buffer" : 0,
            "byteLength" : 20136,
            "byteOffset" : 20136
        },
        {
            "buffer" : 0,
            "byteLength" : 13424,
            "byteOffset" : 40272
        },
        {
            "buffer" : 0,
            "byteLength" : 5532,
            "byteOffset" : 53696
        }
    ],
    "buffers" : [
        {
            "byteLength" : 59228,
            "uri" : "data:application/octet-stream;base64,"
        }
    ]
}
