{
    "asset" : {
        "generator" : "Khronos glTF Blender I/O v3.2.43",
        "version" : "2.0"
    },
    "scene" : 0,
    "scenes" : [
        {
            "name" : "Scene",
            "nodes" : [
                0,
                1,
                2
            ]
        }
    ],
    "nodes" : [
        {
            "name" : "Empty",
            "translation" : [
                0.09999998658895493,
                0,
                0.059999994933605194
            ]
        },
        {
            "camera" : 0,
            "name" : "Camera.001",
            "rotation" : [
                -0.2272864431142807,
                0.709064245223999,
                0.2626136541366577,
                0.6136797666549683
            ],
            "translation" : [
                0.357583224773407,
                -0.196250319480896,
                -1.3476355075836182
            ]
        },
        {
            "mesh" : 0,
            "name" : "Cylinder",
            "scale" : [
                2.0399997234344482,
                0.10000000149011612,
                2.0399999618530273
            ],
            "translation" : [
                -0.5799999237060547,
                -1.4700000286102295,
                -0.7599999308586121
            ]
        }
    ],
    "cameras" : [
        {
            "name" : "Camera.001",
            "perspective" : {
                "aspectRatio" : 1.7777777777777777,
                "yfov" : 0.937270173412135,
                "zfar" : 1000,
                "znear" : 0.10000000149011612
            },
            "type" : "perspective"
        }
    ],
    "animations" : [
        {
            "channels" : [
                {
                    "sampler" : 0,
                    "target" : {
                        "node" : 1,
                        "path" : "rotation"
                    }
                },
                {
                    "sampler" : 1,
                    "target" : {
                        "node" : 1,
                        "path" : "translation"
                    }
                }
            ],
            "name" : "Camera.001Action.005",
            "samplers" : [
                {
                    "input" : 4,
                    "interpolation" : "LINEAR",
                    "output" : 5
                },
                {
                    "input" : 4,
                    "interpolation" : "LINEAR",
                    "output" : 6
                }
            ]
        }
    ],
    "materials" : [
        {
            "doubleSided" : true,
            "name" : "Material.001",
            "pbrMetallicRoughness" : {
                "baseColorFactor" : [
                    0.800000011920929,
                    0.800000011920929,
                    0.800000011920929,
                    1
                ],
                "metallicFactor" : 0,
                "roughnessFactor" : 0.5
            }
        }
    ],
    "meshes" : [
        {
            "name" : "Cylinder.004",
            "primitives" : [
                {
                    "attributes" : {
                        "POSITION" : 0,
                        "NORMAL" : 1,
                        "TEXCOORD_0" : 2
                    },
                    "indices" : 3,
                    "material" : 0
                }
            ]
        }
    ],
    "accessors" : [
        {
            "bufferView" : 0,
            "componentType" : 5126,
            "count" : 1678,
            "max" : [
                1,
                1.000037670135498,
                1
            ],
            "min" : [
                -1,
                -1.0000009536743164,
                -1
            ],
            "type" : "VEC3"
        },
        {
            "bufferView" : 1,
            "componentType" : 5126,
            "count" : 1678,
            "type" : "VEC3"
        },
        {
            "bufferView" : 2,
            "componentType" : 5126,
            "count" : 1678,
            "type" : "VEC2"
        },
        {
            "bufferView" : 3,
            "componentType" : 5123,
            "count" : 2766,
            "type" : "SCALAR"
        },
        {
            "bufferView" : 4,
            "componentType" : 5126,
            "count" : 260,
            "max" : [
                10.833333333333334
            ],
            "min" : [
                0.041666666666666664
            ],
            "type" : "SCALAR"
        },
        {
            "bufferView" : 5,
            "componentType" : 5126,
            "count" : 260,
            "type" : "VEC4"
        },
        {
            "bufferView" : 6,
            "componentType" : 5126,
            "count" : 260,
            "type" : "VEC3"
        }
    ],
    "bufferViews" : [
        {
            "buffer" : 0,
            "byteLength" : 20136,
            "byteOffset" : 0
        },
        {
            "buffer" : 0,
            "byteLength" : 20136,
            "byteOffset" : 20136
        },
        {
            "buffer" : 0,
            "byteLength" : 13424,
            "byteOffset" : 40272
        },
        {
            "buffer" : 0,
            "byteLength" : 5532,
            "byteOffset" : 53696
        },
        {
            "buffer" : 0,
            "byteLength" : 1040,
            "byteOffset" : 59228
        },
        {
            "buffer" : 0,
            "byteLength" : 4160,
            "byteOffset" : 60268
        },
        {
            "buffer" : 0,
            "byteLength" : 3120,
            "byteOffset" : 64428
        }
    ],
    "buffers" : [
        {
            "byteLength" : 67548,
            "uri" : "3DLogo.bin"
        }
    ]
}
